{
	"asset":{
		"generator":"Khronos glTF Blender I/O v4.0.44",
		"version":"2.0"
	},
	"scene":0,
	"scenes":[
		{
			"name":"Scene",
			"nodes":[
				13
			]
		}
	],
	"nodes":[
		{
			"mesh":0,
			"name":"Object_10"
		},
		{
			"mesh":1,
			"name":"Object_11"
		},
		{
			"mesh":2,
			"name":"Object_12"
		},
		{
			"mesh":3,
			"name":"Object_13"
		},
		{
			"mesh":4,
			"name":"Object_3"
		},
		{
			"mesh":5,
			"name":"Object_4"
		},
		{
			"mesh":6,
			"name":"Object_5"
		},
		{
			"mesh":7,
			"name":"Object_6"
		},
		{
			"mesh":8,
			"name":"Object_7"
		},
		{
			"mesh":9,
			"name":"Object_8"
		},
		{
			"mesh":10,
			"name":"Object_9"
		},
		{
			"children":[
				0,
				1,
				2,
				3,
				4,
				5,
				6,
				7,
				8,
				9,
				10
			],
			"name":"Object_2"
		},
		{
			"children":[
				11
			],
			"name":"Fox.obj.cleaner.materialmerger.gles",
			"translation":[
				-1.7876269817352295,
				-1.7876280546188354,
				-0.35703304409980774
			]
		},
		{
			"children":[
				12
			],
			"name":"Sketchfab_model",
			"rotation":[
				-0.70710688829422,
				0,
				0,
				0.7071066498756409
			],
			"scale":[
				7.411968231201172,
				7.411969184875488,
				7.411969184875488
			]
		}
	],
	"materials":[
		{
			"doubleSided":true,
			"name":"Vest",
			"normalTexture":{
				"index":0
			},
			"pbrMetallicRoughness":{
				"baseColorTexture":{
					"index":1
				},
				"metallicRoughnessTexture":{
					"index":2
				}
			}
		},
		{
			"doubleSided":true,
			"name":"Blade",
			"normalTexture":{
				"index":3
			},
			"pbrMetallicRoughness":{
				"baseColorTexture":{
					"index":4
				},
				"metallicRoughnessTexture":{
					"index":5
				}
			}
		},
		{
			"doubleSided":true,
			"name":"Eyes",
			"pbrMetallicRoughness":{
				"baseColorTexture":{
					"index":6
				},
				"metallicFactor":0,
				"metallicRoughnessTexture":{
					"index":7
				},
				"roughnessFactor":0.5809832215309143
			}
		},
		{
			"alphaMode":"BLEND",
			"doubleSided":true,
			"name":"Shiny",
			"pbrMetallicRoughness":{
				"baseColorFactor":[
					0.6399999856948853,
					0.6399999856948853,
					0.6399999856948853,
					0
				],
				"metallicFactor":0,
				"roughnessFactor":0.6000000238418579
			}
		},
		{
			"doubleSided":true,
			"name":"Braser",
			"normalTexture":{
				"index":8
			},
			"pbrMetallicRoughness":{
				"baseColorTexture":{
					"index":9
				},
				"metallicRoughnessTexture":{
					"index":10
				}
			}
		},
		{
			"doubleSided":true,
			"name":"material",
			"pbrMetallicRoughness":{
				"baseColorTexture":{
					"index":11
				},
				"metallicFactor":0,
				"metallicRoughnessTexture":{
					"index":12
				}
			}
		},
		{
			"alphaMode":"BLEND",
			"doubleSided":true,
			"name":"Glass",
			"pbrMetallicRoughness":{
				"baseColorFactor":[
					0,
					0.03421842306852341,
					1,
					0.8275533318519592
				],
				"metallicFactor":0,
				"roughnessFactor":0
			}
		},
		{
			"doubleSided":true,
			"name":"Material.001",
			"normalTexture":{
				"index":13
			},
			"pbrMetallicRoughness":{
				"baseColorFactor":[
					0,
					0,
					0,
					1
				],
				"metallicFactor":0,
				"metallicRoughnessTexture":{
					"index":14
				}
			}
		},
		{
			"doubleSided":true,
			"name":"Nail_paws_and_teeth",
			"pbrMetallicRoughness":{
				"baseColorTexture":{
					"index":15
				},
				"metallicRoughnessTexture":{
					"index":16
				},
				"roughnessFactor":0.4000000059604645
			}
		},
		{
			"doubleSided":true,
			"name":"Studio_floor_material_applied",
			"normalTexture":{
				"index":17
			},
			"pbrMetallicRoughness":{
				"baseColorTexture":{
					"index":18
				},
				"metallicFactor":0,
				"metallicRoughnessTexture":{
					"index":19
				}
			}
		},
		{
			"doubleSided":true,
			"name":"T-shirt",
			"normalTexture":{
				"index":20
			},
			"pbrMetallicRoughness":{
				"baseColorTexture":{
					"index":21
				},
				"metallicRoughnessTexture":{
					"index":22
				}
			}
		}
	],
	"meshes":[
		{
			"name":"Object_7",
			"primitives":[
				{
					"attributes":{
						"POSITION":0,
						"NORMAL":1,
						"TEXCOORD_0":2
					},
					"indices":3,
					"material":0
				}
			]
		},
		{
			"name":"Object_8",
			"primitives":[
				{
					"attributes":{
						"POSITION":4,
						"NORMAL":5,
						"TEXCOORD_0":6
					},
					"indices":7,
					"material":1
				}
			]
		},
		{
			"name":"Object_9",
			"primitives":[
				{
					"attributes":{
						"POSITION":8,
						"NORMAL":9,
						"TEXCOORD_0":10
					},
					"indices":11,
					"material":2
				}
			]
		},
		{
			"name":"Object_10",
			"primitives":[
				{
					"attributes":{
						"POSITION":12,
						"NORMAL":13,
						"TEXCOORD_0":14
					},
					"indices":11,
					"material":3
				}
			]
		},
		{
			"name":"Object_0",
			"primitives":[
				{
					"attributes":{
						"POSITION":15,
						"NORMAL":16,
						"TEXCOORD_0":17
					},
					"indices":18,
					"material":4
				}
			]
		},
		{
			"name":"Object_1",
			"primitives":[
				{
					"attributes":{
						"POSITION":19,
						"NORMAL":20,
						"TEXCOORD_0":21
					},
					"indices":22,
					"material":5
				}
			]
		},
		{
			"name":"Object_2",
			"primitives":[
				{
					"attributes":{
						"POSITION":23,
						"NORMAL":24,
						"TEXCOORD_0":25
					},
					"indices":26,
					"material":6
				}
			]
		},
		{
			"name":"Object_3",
			"primitives":[
				{
					"attributes":{
						"POSITION":27,
						"NORMAL":28,
						"TEXCOORD_0":29
					},
					"indices":30,
					"material":7
				}
			]
		},
		{
			"name":"Object_4",
			"primitives":[
				{
					"attributes":{
						"POSITION":31,
						"NORMAL":32,
						"TEXCOORD_0":33
					},
					"indices":34,
					"material":8
				}
			]
		},
		{
			"name":"Object_5",
			"primitives":[
				{
					"attributes":{
						"POSITION":35,
						"NORMAL":36,
						"TEXCOORD_0":37
					},
					"indices":38,
					"material":9
				}
			]
		},
		{
			"name":"Object_6",
			"primitives":[
				{
					"attributes":{
						"POSITION":39,
						"NORMAL":40,
						"TEXCOORD_0":41
					},
					"indices":42,
					"material":10
				}
			]
		}
	],
	"textures":[
		{
			"sampler":0,
			"source":0
		},
		{
			"sampler":0,
			"source":1
		},
		{
			"sampler":0,
			"source":2
		},
		{
			"sampler":0,
			"source":3
		},
		{
			"sampler":0,
			"source":4
		},
		{
			"sampler":0,
			"source":5
		},
		{
			"sampler":0,
			"source":6
		},
		{
			"sampler":0,
			"source":7
		},
		{
			"sampler":0,
			"source":8
		},
		{
			"sampler":0,
			"source":9
		},
		{
			"sampler":0,
			"source":10
		},
		{
			"sampler":0,
			"source":11
		},
		{
			"sampler":0,
			"source":12
		},
		{
			"sampler":0,
			"source":13
		},
		{
			"sampler":0,
			"source":12
		},
		{
			"sampler":0,
			"source":14
		},
		{
			"sampler":0,
			"source":15
		},
		{
			"sampler":0,
			"source":13
		},
		{
			"sampler":0,
			"source":16
		},
		{
			"sampler":0,
			"source":12
		},
		{
			"sampler":0,
			"source":17
		},
		{
			"sampler":0,
			"source":18
		},
		{
			"sampler":0,
			"source":19
		}
	],
	"images":[
		{
			"mimeType":"image/png",
			"name":"Vest_normal",
			"uri":"textures1/Vest_normal.png"
		},
		{
			"mimeType":"image/png",
			"name":"Vest_baseColor",
			"uri":"textures1/Vest_baseColor.png"
		},
		{
			"mimeType":"image/png",
			"name":"Vest_metallicRoughness",
			"uri":"textures1/Vest_metallicRoughness.png"
		},
		{
			"mimeType":"image/png",
			"name":"Blade_normal",
			"uri":"textures1/Blade_normal.png"
		},
		{
			"mimeType":"image/png",
			"name":"Blade_baseColor",
			"uri":"textures1/Blade_baseColor.png"
		},
		{
			"mimeType":"image/png",
			"name":"Blade_metallicRoughness",
			"uri":"textures1/Blade_metallicRoughness.png"
		},
		{
			"mimeType":"image/png",
			"name":"Eyes_baseColor",
			"uri":"textures1/Eyes_baseColor.png"
		},
		{
			"mimeType":"image/png",
			"name":"Eyes_metallicRoughness",
			"uri":"textures1/Eyes_metallicRoughness.png"
		},
		{
			"mimeType":"image/png",
			"name":"Braser_normal",
			"uri":"textures1/Braser_normal.png"
		},
		{
			"mimeType":"image/png",
			"name":"Braser_baseColor",
			"uri":"textures1/Braser_baseColor.png"
		},
		{
			"mimeType":"image/png",
			"name":"Braser_metallicRoughness",
			"uri":"textures1/Braser_metallicRoughness.png"
		},
		{
			"mimeType":"image/png",
			"name":"material_baseColor",
			"uri":"textures1/material_baseColor.png"
		},
		{
			"mimeType":"image/png",
			"name":"material_metallicRoughness",
			"uri":"textures1/material_metallicRoughness.png"
		},
		{
			"mimeType":"image/png",
			"name":"Material_normal",
			"uri":"textures1/Material_normal.png"
		},
		{
			"mimeType":"image/png",
			"name":"Nail_paws_and_teeth_baseColor",
			"uri":"textures1/Nail_paws_and_teeth_baseColor.png"
		},
		{
			"mimeType":"image/png",
			"name":"Nail_paws_and_teeth_metallicRoughness",
			"uri":"textures1/Nail_paws_and_teeth_metallicRoughness.png"
		},
		{
			"mimeType":"image/jpeg",
			"name":"Studio_floor_material_applied_baseColor",
			"uri":"textures1/Studio_floor_material_applied_baseColor.jpg"
		},
		{
			"mimeType":"image/png",
			"name":"T-shirt_normal",
			"uri":"textures1/T-shirt_normal.png"
		},
		{
			"mimeType":"image/png",
			"name":"T-shirt_baseColor",
			"uri":"textures1/T-shirt_baseColor.png"
		},
		{
			"mimeType":"image/png",
			"name":"T-shirt_metallicRoughness",
			"uri":"textures1/T-shirt_metallicRoughness.png"
		}
	],
	"accessors":[
		{
			"bufferView":0,
			"componentType":5126,
			"count":2992,
			"max":[
				2.0551199913024902,
				2.1274771690368652,
				3.546004056930542
			],
			"min":[
				1.2602239847183228,
				1.3278720378875732,
				2.5289320945739746
			],
			"type":"VEC3"
		},
		{
			"bufferView":1,
			"componentType":5126,
			"count":2992,
			"type":"VEC3"
		},
		{
			"bufferView":2,
			"componentType":5126,
			"count":2992,
			"type":"VEC2"
		},
		{
			"bufferView":3,
			"componentType":5123,
			"count":16608,
			"type":"SCALAR"
		},
		{
			"bufferView":4,
			"componentType":5126,
			"count":450,
			"max":[
				3.543349027633667,
				3.6621079444885254,
				4.700740814208984
			],
			"min":[
				0.6145390272140503,
				1.3475689888000488,
				3.122745990753174
			],
			"type":"VEC3"
		},
		{
			"bufferView":5,
			"componentType":5126,
			"count":450,
			"type":"VEC3"
		},
		{
			"bufferView":6,
			"componentType":5126,
			"count":450,
			"type":"VEC2"
		},
		{
			"bufferView":7,
			"componentType":5123,
			"count":1944,
			"type":"SCALAR"
		},
		{
			"bufferView":8,
			"componentType":5126,
			"count":1252,
			"max":[
				1.8692649602890015,
				1.6040830612182617,
				3.901854991912842
			],
			"min":[
				1.5204229354858398,
				1.4512230157852173,
				3.732464075088501
			],
			"type":"VEC3"
		},
		{
			"bufferView":9,
			"componentType":5126,
			"count":1252,
			"type":"VEC3"
		},
		{
			"bufferView":10,
			"componentType":5126,
			"count":1252,
			"type":"VEC2"
		},
		{
			"bufferView":11,
			"componentType":5123,
			"count":7200,
			"type":"SCALAR"
		},
		{
			"bufferView":12,
			"componentType":5126,
			"count":1252,
			"max":[
				1.869568943977356,
				1.6044260263442993,
				3.9021639823913574
			],
			"min":[
				1.5201079845428467,
				1.4489080905914307,
				3.732154130935669
			],
			"type":"VEC3"
		},
		{
			"bufferView":13,
			"componentType":5126,
			"count":1252,
			"type":"VEC3"
		},
		{
			"bufferView":14,
			"componentType":5126,
			"count":1252,
			"type":"VEC2"
		},
		{
			"bufferView":15,
			"componentType":5126,
			"count":1890,
			"max":[
				2.4279370307922363,
				1.966148018836975,
				3.1677730083465576
			],
			"min":[
				0.7507809400558472,
				1.058730125427246,
				2.312626838684082
			],
			"type":"VEC3"
		},
		{
			"bufferView":16,
			"componentType":5126,
			"count":1890,
			"type":"VEC3"
		},
		{
			"bufferView":17,
			"componentType":5126,
			"count":1890,
			"type":"VEC2"
		},
		{
			"bufferView":18,
			"componentType":5123,
			"count":10560,
			"type":"SCALAR"
		},
		{
			"bufferView":19,
			"componentType":5126,
			"count":12561,
			"max":[
				2.855318069458008,
				2.620880126953125,
				4.3669023513793945
			],
			"min":[
				0.6704039573669434,
				0.7491320371627808,
				0.3621710240840912
			],
			"type":"VEC3"
		},
		{
			"bufferView":20,
			"componentType":5126,
			"count":12561,
			"type":"VEC3"
		},
		{
			"bufferView":21,
			"componentType":5126,
			"count":12561,
			"type":"VEC2"
		},
		{
			"bufferView":22,
			"componentType":5123,
			"count":68964,
			"type":"SCALAR"
		},
		{
			"bufferView":23,
			"componentType":5126,
			"count":463,
			"max":[
				0.7385280132293701,
				1.493319034576416,
				3.2909789085388184
			],
			"min":[
				0.6145409345626831,
				1.3475580215454102,
				3.122750997543335
			],
			"type":"VEC3"
		},
		{
			"bufferView":24,
			"componentType":5126,
			"count":463,
			"type":"VEC3"
		},
		{
			"bufferView":25,
			"componentType":5126,
			"count":463,
			"type":"VEC2"
		},
		{
			"bufferView":26,
			"componentType":5123,
			"count":480,
			"type":"SCALAR"
		},
		{
			"bufferView":27,
			"componentType":5126,
			"count":993,
			"max":[
				3.575253963470459,
				3.5752549171447754,
				0.1859550178050995
			],
			"min":[
				0,
				0,
				0
			],
			"type":"VEC3"
		},
		{
			"bufferView":28,
			"componentType":5126,
			"count":993,
			"type":"VEC3"
		},
		{
			"bufferView":29,
			"componentType":5126,
			"count":993,
			"type":"VEC2"
		},
		{
			"bufferView":30,
			"componentType":5123,
			"count":5568,
			"type":"SCALAR"
		},
		{
			"bufferView":31,
			"componentType":5126,
			"count":6908,
			"max":[
				2.675065040588379,
				2.4310569763183594,
				3.6804449558258057
			],
			"min":[
				0.6626110076904297,
				0.7250159978866577,
				0.3570430278778076
			],
			"type":"VEC3"
		},
		{
			"bufferView":32,
			"componentType":5126,
			"count":6908,
			"type":"VEC3"
		},
		{
			"bufferView":33,
			"componentType":5126,
			"count":6908,
			"type":"VEC2"
		},
		{
			"bufferView":34,
			"componentType":5123,
			"count":34752,
			"type":"SCALAR"
		},
		{
			"bufferView":35,
			"componentType":5126,
			"count":641,
			"max":[
				3.278359889984131,
				3.278359889984131,
				0.35703301429748535
			],
			"min":[
				0.2968939542770386,
				0.29689502716064453,
				0.1859550178050995
			],
			"type":"VEC3"
		},
		{
			"bufferView":36,
			"componentType":5126,
			"count":641,
			"type":"VEC3"
		},
		{
			"bufferView":37,
			"componentType":5126,
			"count":641,
			"type":"VEC2"
		},
		{
			"bufferView":38,
			"componentType":5123,
			"count":3648,
			"type":"SCALAR"
		},
		{
			"bufferView":39,
			"componentType":5126,
			"count":3310,
			"max":[
				2.3153069019317627,
				2.169525146484375,
				3.469327926635742
			],
			"min":[
				1.150804042816162,
				1.367922067642212,
				2.4611830711364746
			],
			"type":"VEC3"
		},
		{
			"bufferView":40,
			"componentType":5126,
			"count":3310,
			"type":"VEC3"
		},
		{
			"bufferView":41,
			"componentType":5126,
			"count":3310,
			"type":"VEC2"
		},
		{
			"bufferView":42,
			"componentType":5123,
			"count":18468,
			"type":"SCALAR"
		}
	],
	"bufferViews":[
		{
			"buffer":0,
			"byteLength":35904,
			"byteOffset":0,
			"target":34962
		},
		{
			"buffer":0,
			"byteLength":35904,
			"byteOffset":35904,
			"target":34962
		},
		{
			"buffer":0,
			"byteLength":23936,
			"byteOffset":71808,
			"target":34962
		},
		{
			"buffer":0,
			"byteLength":33216,
			"byteOffset":95744,
			"target":34963
		},
		{
			"buffer":0,
			"byteLength":5400,
			"byteOffset":128960,
			"target":34962
		},
		{
			"buffer":0,
			"byteLength":5400,
			"byteOffset":134360,
			"target":34962
		},
		{
			"buffer":0,
			"byteLength":3600,
			"byteOffset":139760,
			"target":34962
		},
		{
			"buffer":0,
			"byteLength":3888,
			"byteOffset":143360,
			"target":34963
		},
		{
			"buffer":0,
			"byteLength":15024,
			"byteOffset":147248,
			"target":34962
		},
		{
			"buffer":0,
			"byteLength":15024,
			"byteOffset":162272,
			"target":34962
		},
		{
			"buffer":0,
			"byteLength":10016,
			"byteOffset":177296,
			"target":34962
		},
		{
			"buffer":0,
			"byteLength":14400,
			"byteOffset":187312,
			"target":34963
		},
		{
			"buffer":0,
			"byteLength":15024,
			"byteOffset":201712,
			"target":34962
		},
		{
			"buffer":0,
			"byteLength":15024,
			"byteOffset":216736,
			"target":34962
		},
		{
			"buffer":0,
			"byteLength":10016,
			"byteOffset":231760,
			"target":34962
		},
		{
			"buffer":0,
			"byteLength":22680,
			"byteOffset":241776,
			"target":34962
		},
		{
			"buffer":0,
			"byteLength":22680,
			"byteOffset":264456,
			"target":34962
		},
		{
			"buffer":0,
			"byteLength":15120,
			"byteOffset":287136,
			"target":34962
		},
		{
			"buffer":0,
			"byteLength":21120,
			"byteOffset":302256,
			"target":34963
		},
		{
			"buffer":0,
			"byteLength":150732,
			"byteOffset":323376,
			"target":34962
		},
		{
			"buffer":0,
			"byteLength":150732,
			"byteOffset":474108,
			"target":34962
		},
		{
			"buffer":0,
			"byteLength":100488,
			"byteOffset":624840,
			"target":34962
		},
		{
			"buffer":0,
			"byteLength":137928,
			"byteOffset":725328,
			"target":34963
		},
		{
			"buffer":0,
			"byteLength":5556,
			"byteOffset":863256,
			"target":34962
		},
		{
			"buffer":0,
			"byteLength":5556,
			"byteOffset":868812,
			"target":34962
		},
		{
			"buffer":0,
			"byteLength":3704,
			"byteOffset":874368,
			"target":34962
		},
		{
			"buffer":0,
			"byteLength":960,
			"byteOffset":878072,
			"target":34963
		},
		{
			"buffer":0,
			"byteLength":11916,
			"byteOffset":879032,
			"target":34962
		},
		{
			"buffer":0,
			"byteLength":11916,
			"byteOffset":890948,
			"target":34962
		},
		{
			"buffer":0,
			"byteLength":7944,
			"byteOffset":902864,
			"target":34962
		},
		{
			"buffer":0,
			"byteLength":11136,
			"byteOffset":910808,
			"target":34963
		},
		{
			"buffer":0,
			"byteLength":82896,
			"byteOffset":921944,
			"target":34962
		},
		{
			"buffer":0,
			"byteLength":82896,
			"byteOffset":1004840,
			"target":34962
		},
		{
			"buffer":0,
			"byteLength":55264,
			"byteOffset":1087736,
			"target":34962
		},
		{
			"buffer":0,
			"byteLength":69504,
			"byteOffset":1143000,
			"target":34963
		},
		{
			"buffer":0,
			"byteLength":7692,
			"byteOffset":1212504,
			"target":34962
		},
		{
			"buffer":0,
			"byteLength":7692,
			"byteOffset":1220196,
			"target":34962
		},
		{
			"buffer":0,
			"byteLength":5128,
			"byteOffset":1227888,
			"target":34962
		},
		{
			"buffer":0,
			"byteLength":7296,
			"byteOffset":1233016,
			"target":34963
		},
		{
			"buffer":0,
			"byteLength":39720,
			"byteOffset":1240312,
			"target":34962
		},
		{
			"buffer":0,
			"byteLength":39720,
			"byteOffset":1280032,
			"target":34962
		},
		{
			"buffer":0,
			"byteLength":26480,
			"byteOffset":1319752,
			"target":34962
		},
		{
			"buffer":0,
			"byteLength":36936,
			"byteOffset":1346232,
			"target":34963
		}
	],
	"samplers":[
		{
			"magFilter":9729,
			"minFilter":9987
		}
	],
	"buffers":[
		{
			"byteLength":1383168,
			"uri":"fox1.bin"
		}
	]
}
